<?xml version="1.0" encoding="utf-8"?>
<!-- Generator: Adobe Illustrator 13.0.0, SVG Export Plug-In . SVG Version: 6.00 Build 14948)  -->
<!DOCTYPE svg PUBLIC "-//W3C//DTD SVG 1.1//EN" "http://www.w3.org/Graphics/SVG/1.1/DTD/svg11.dtd">
<svg version="1.1" id="Layer_1" xmlns="http://www.w3.org/2000/svg" xmlns:xlink="http://www.w3.org/1999/xlink" x="0px" y="0px"
	 width="20px" height="20px" viewBox="0 0 20 20" enable-background="new 0 0 20 20" xml:space="preserve">
<g>
	<g>
		<g>
			<path fill="#F0A528" d="M10,19.002H9.944C4.981,18.969,0.969,14.904,1,9.944C1.031,5.013,5.068,1,9.998,1
				c5.02,0.033,9.033,4.095,9.004,9.055C18.971,14.989,14.932,19.002,10,19.002L10,19.002z"/>
			<path fill="#C86400" d="M9.999,0c0.021,0,0.042,0,0.063,0C15.585,0.035,20.034,4.54,20,10.062C19.966,15.563,15.494,20,10,20
				c-0.021,0-0.041,0-0.062,0C4.416,19.965-0.034,15.46,0,9.938C0.035,4.437,4.506,0,9.999,0 M10,2C5.616,2,2.027,5.566,2,9.951
				C1.973,14.361,5.54,17.972,9.951,18c4.433,0,8.021-3.566,8.049-7.95c0.027-4.411-3.539-8.022-7.951-8.05H10L10,2L10,2z"/>
		</g>
		<line fill="none" stroke="#C86400" stroke-width="2" stroke-miterlimit="10" x1="19" y1="10.056" x2="1" y2="9.944"/>
		<g>
			<line fill="none" stroke="#C86400" stroke-width="2" stroke-miterlimit="10" x1="10.056" y1="1" x2="9.944" y2="19"/>
			<path fill="none" stroke="#C86400" stroke-width="2" stroke-miterlimit="10" d="M5.241,2.971c0,0,0.855-0.02,0.811,7.115
				c-0.044,7.133-0.898,6.884-0.898,6.884"/>
			<path fill="none" stroke="#C86400" stroke-width="2" stroke-miterlimit="10" d="M14.759,16.977c0,0-0.855,0.02-0.811-7.115
				c0.045-7.135,0.898-6.885,0.898-6.885"/>
		</g>
	</g>
</g>
</svg>
