<?xml version="1.0" encoding="utf-8"?>
<!-- Generator: Adobe Illustrator 13.0.0, SVG Export Plug-In . SVG Version: 6.00 Build 14948)  -->
<!DOCTYPE svg PUBLIC "-//W3C//DTD SVG 1.1//EN" "http://www.w3.org/Graphics/SVG/1.1/DTD/svg11.dtd">
<svg version="1.1" id="Layer_1" xmlns="http://www.w3.org/2000/svg" xmlns:xlink="http://www.w3.org/1999/xlink" x="0px" y="0px"
	 width="640px" height="480px" viewBox="0 0 640 480" enable-background="new 0 0 640 480" xml:space="preserve">
<rect fill="#AF6EF5" width="640" height="480"/>
<g display="none">
	<rect x="180" y="360" display="inline" fill="#B0B8C4" width="40" height="60"/>
	<rect x="420" y="360" display="inline" fill="#B0B8C4" width="40" height="60"/>
	
		<rect x="120" y="195" transform="matrix(0.7071 -0.7071 0.7071 0.7071 -171.1271 186.863)" display="inline" fill="#B0B8C4" width="40" height="210"/>
	
		<rect x="119.999" y="75" transform="matrix(0.7071 0.7071 -0.7071 0.7071 168.288 -46.2733)" display="inline" fill="#B0B8C4" width="40.001" height="210"/>
	
		<rect x="480" y="75.001" transform="matrix(0.7071 -0.7071 0.7071 0.7071 19.1631 406.266)" display="inline" fill="#B0B8C4" width="40.001" height="210"/>
	
		<rect x="480" y="195.001" transform="matrix(0.7071 0.7071 -0.7071 0.7071 358.598 -265.69)" display="inline" fill="#B0B8C4" width="40" height="209.999"/>
	
		<rect x="300" y="50" transform="matrix(0.7071 0.7071 -0.7071 0.7071 263.4279 -155.9794)" display="inline" fill="#B0B8C4" width="40" height="380"/>
	
		<rect x="300" y="50" transform="matrix(-0.7071 0.7071 -0.7071 -0.7071 715.9794 183.4316)" display="inline" fill="#B0B8C4" width="40" height="380"/>
	<rect x="180" y="60" display="inline" fill="#B0B8C4" width="40" height="60"/>
	<rect x="420" y="60" display="inline" fill="#B0B8C4" width="40" height="60"/>
</g>
<g>
	<g>
		<path fill="#F0D219" d="M588.112,240.12l-0.245-0.245l0.106-0.106L460,111.794V60h-40v51.715l-100,100l-100-100V60h-40v51.715
			L51.736,239.979l28.284,28.285l0.019-0.019L180,368.206V420h40v-51.716l100-100l100,100V420h40v-51.769L588.112,240.12z
			 M199.96,331.756l-91.715-91.716L200,148.285L291.715,240L199.96,331.756z M440.039,148.245l91.741,91.742l-91.754,91.755
			L348.284,240L440.039,148.245z"/>
	</g>
	<g>
		<path fill="none" stroke="#3C234B" stroke-width="5" stroke-linecap="round" stroke-linejoin="round" stroke-miterlimit="10" d="
			M588.112,240.12l-0.245-0.245l0.106-0.106L460,111.794V60h-40v51.715l-100,100l-100-100V60h-40v51.715L51.736,239.979
			l28.284,28.285l0.019-0.019L180,368.206V420h40v-51.716l100-100l100,100V420h40v-51.769L588.112,240.12z M199.96,331.756
			l-91.715-91.716L200,148.285L291.715,240L199.96,331.756z M440.039,148.245l91.741,91.742l-91.754,91.755L348.284,240
			L440.039,148.245z"/>
	</g>
</g>
<rect x="162.5" y="145.5" transform="matrix(0.7071 -0.7071 0.7071 0.7071 -46.0732 184.7675)" display="none" fill="#5A3CB4" width="75" height="5"/>
<rect x="402.501" y="145.5" transform="matrix(0.7071 -0.7071 0.7071 0.7071 24.2233 354.4793)" display="none" fill="#5A3CB4" width="75" height="4.999"/>
<rect x="282.5" y="265.5" transform="matrix(0.7071 -0.7071 0.7071 0.7071 -95.7786 304.7715)" display="none" fill="#5A3CB4" width="75" height="5"/>
<rect fill="#AF6EF5" width="640" height="72"/>
<rect y="408" fill="#AF6EF5" width="640" height="72"/>
<circle display="none" fill="#3C234B" cx="200" cy="148" r="2.5"/>
<circle display="none" fill="#3C234B" cx="320" cy="268" r="2.5"/>
<circle display="none" fill="#3C234B" cx="440" cy="148" r="2.5"/>
<g>
	<path fill="#3C234B" d="M312.245,303.08l1.44,2.431c0.42,0.749,0.81,1.499,1.2,2.189h0.06c0.39-0.78,0.75-1.53,1.14-2.249
		l1.29-2.371h4.95l-4.83,6.99l4.89,7.68h-5.16l-1.47-2.64c-0.42-0.72-0.78-1.47-1.14-2.22h-0.09c-0.36,0.779-0.75,1.5-1.11,2.22
		l-1.38,2.64h-5.01l4.98-7.47l-4.86-7.2H312.245z"/>
	<path fill="#3C234B" d="M322.955,320.48l1.83-1.681c2.279-2.01,3.51-3.03,3.51-4.319c0-0.84-0.66-1.44-1.77-1.44
		c-0.99,0-1.92,0.39-2.58,0.841l-0.9-2.281c0.99-0.719,2.55-1.289,4.35-1.289c3,0,4.59,1.59,4.59,3.629
		c0,2.131-1.65,3.511-3.449,4.98l-0.721,0.57v0.06h4.38v2.61h-9.239V320.48z"/>
</g>
<g>
	<path fill="#3C234B" d="M193.025,182.83l1.44,2.43c0.42,0.75,0.81,1.5,1.2,2.189h0.06c0.39-0.78,0.75-1.53,1.14-2.25l1.29-2.37
		h4.95l-4.83,6.99l4.89,7.68h-5.16l-1.47-2.64c-0.42-0.72-0.78-1.47-1.14-2.22h-0.09c-0.36,0.78-0.75,1.5-1.11,2.22l-1.38,2.64
		h-5.01l4.98-7.47l-4.86-7.2H193.025z"/>
	<path fill="#3C234B" d="M206.825,201.909v-8.85h-0.06l-2.37,1.05l-0.48-2.46l3.36-1.44h3.06v11.699H206.825z"/>
</g>
<g>
	<path fill="#3C234B" d="M432.57,182.956l1.439,2.43c0.42,0.75,0.811,1.5,1.2,2.189h0.06c0.391-0.78,0.75-1.53,1.141-2.25
		l1.289-2.37h4.95l-4.829,6.99l4.889,7.68h-5.159l-1.47-2.64c-0.42-0.72-0.78-1.47-1.141-2.22h-0.09
		c-0.359,0.78-0.75,1.5-1.109,2.22l-1.381,2.64h-5.01l4.98-7.47l-4.859-7.2H432.57z"/>
	<path fill="#3C234B" d="M443.58,191.146c0.87-0.54,2.46-0.96,4.199-0.96c2.881,0,4.351,1.32,4.351,2.97c0,1.29-1.05,2.22-2.49,2.64
		v0.06c1.649,0.18,2.91,1.23,2.91,2.76c0,2.1-2.101,3.57-5.399,3.57c-1.621,0-3.18-0.36-4.051-0.84l0.69-2.34
		c0.63,0.33,1.86,0.78,2.94,0.78c1.26,0,2.159-0.57,2.129-1.35c0-1.02-1.26-1.5-2.58-1.5h-0.899v-2.04h0.84
		c0.99,0,2.31-0.33,2.31-1.26c0-0.6-0.479-1.05-1.59-1.05c-1.049,0-2.129,0.42-2.699,0.72L443.58,191.146z"/>
</g>
<g>
	<path fill="#3C234B" d="M196.386,53.94l-1.728,6.227h-5.688l7.415-24.261h7.199l7.523,24.261h-5.903l-1.872-6.227H196.386z
		 M202.541,49.836l-1.512-5.147c-0.432-1.44-0.864-3.24-1.224-4.679h-0.072c-0.36,1.439-0.72,3.275-1.116,4.679l-1.44,5.147H202.541
		z"/>
</g>
<g>
	<path fill="#3C234B" d="M431.504,35.771c1.439-0.288,4.355-0.504,7.092-0.504c3.348,0,5.398,0.324,7.162,1.368
		c1.692,0.9,2.916,2.556,2.916,4.751c0,2.16-1.26,4.176-3.995,5.184v0.072c2.771,0.756,4.823,2.844,4.823,5.975
		c0,2.196-1.008,3.924-2.52,5.147c-1.764,1.404-4.716,2.196-9.539,2.196c-2.699,0-4.715-0.18-5.939-0.36V35.771z M436.939,45.058
		h1.8c2.88,0,4.427-1.188,4.427-2.987c0-1.836-1.403-2.808-3.887-2.808c-1.188,0-1.872,0.072-2.34,0.144V45.058z M436.939,55.82
		c0.54,0.072,1.188,0.072,2.123,0.072c2.484,0,4.68-0.972,4.68-3.492c0-2.448-2.195-3.419-4.932-3.419h-1.871V55.82z"/>
</g>
<g>
	<path fill="#3C234B" d="M209.65,443.482c-1.008,0.504-3.275,1.08-6.227,1.08c-8.387,0-12.707-5.256-12.707-12.167
		c0-8.278,5.903-12.886,13.247-12.886c2.843,0,5.003,0.575,5.975,1.079l-1.116,4.355c-1.116-0.468-2.664-0.899-4.607-0.899
		c-4.355,0-7.739,2.627-7.739,8.026c0,4.86,2.88,7.919,7.775,7.919c1.656,0,3.492-0.359,4.572-0.791L209.65,443.482z"/>
</g>
<g>
	<path fill="#3C234B" d="M429.848,419.773c2.016-0.324,4.644-0.504,7.415-0.504c4.607,0,7.595,0.827,9.935,2.592
		c2.52,1.871,4.104,4.859,4.104,9.143c0,4.643-1.691,7.847-4.031,9.826c-2.556,2.124-6.443,3.132-11.194,3.132
		c-2.844,0-4.859-0.181-6.228-0.36V419.773z M435.355,439.57c0.468,0.108,1.224,0.108,1.907,0.108
		c4.968,0.036,8.207-2.7,8.207-8.495c0.036-5.039-2.915-7.703-7.631-7.703c-1.224,0-2.016,0.107-2.483,0.216V439.57z"/>
</g>
<g>
	<g>
		<path fill="#F0A528" d="M-153.671,239.166h-0.055c-4.961-0.031-8.975-4.094-8.944-9.057c0.031-4.932,4.069-8.944,8.999-8.944
			c5.019,0.031,9.032,4.094,9.001,9.057C-144.701,235.154-148.739,239.166-153.671,239.166L-153.671,239.166z"/>
		<path fill="#C86400" d="M-153.671,220.166c0.021,0,0.042,0,0.063,0c5.523,0.035,9.972,4.54,9.938,10.062
			c-0.034,5.501-4.505,9.938-10,9.938c-0.021,0-0.042,0-0.063,0c-5.522-0.034-9.972-4.54-9.938-10.062
			C-163.636,224.602-159.165,220.166-153.671,220.166 M-153.671,222.166c-4.383,0-7.972,3.566-8,7.951
			c-0.013,2.136,0.807,4.15,2.308,5.671c1.502,1.521,3.505,2.365,5.642,2.378c4.434,0,8.022-3.566,8.05-7.95
			c0.027-4.411-3.539-8.022-7.951-8.05H-153.671L-153.671,222.166z"/>
	</g>
	<line fill="none" stroke="#C86400" stroke-width="2" stroke-miterlimit="10" x1="-144.67" y1="230.221" x2="-162.67" y2="230.11"/>
	<g>
		
			<line fill="none" stroke="#C86400" stroke-width="2" stroke-miterlimit="10" x1="-153.614" y1="221.166" x2="-153.727" y2="239.166"/>
		<path fill="none" stroke="#C86400" stroke-width="2" stroke-miterlimit="10" d="M-158.429,223.136c0,0,0.855-0.02,0.811,7.115
			s-0.898,6.885-0.898,6.885"/>
		<path fill="none" stroke="#C86400" stroke-width="2" stroke-miterlimit="10" d="M-148.911,237.143c0,0-0.855,0.02-0.811-7.115
			s0.898-6.885,0.898-6.885"/>
	</g>
</g>
<g display="none">
	<g display="inline">
		<path fill="#F0A528" d="M195.731,144.525c-4.436,0-8.169-3.184-8.877-7.571c-0.382-2.372,0.183-4.752,1.591-6.702
			c1.408-1.949,3.492-3.233,5.864-3.615c0.478-0.078,0.964-0.116,1.444-0.116c4.434,0,8.165,3.184,8.873,7.569
			c0.789,4.899-2.554,9.528-7.453,10.319C196.696,144.485,196.211,144.525,195.731,144.525L195.731,144.525z"/>
		<path fill="#C86400" d="M195.752,125.521c4.822,0,9.069,3.497,9.861,8.41c0.879,5.452-2.829,10.584-8.281,11.464
			c-0.538,0.086-1.074,0.129-1.602,0.129c-4.823,0-9.07-3.497-9.862-8.411c-0.878-5.452,2.829-10.585,8.281-11.464
			C194.688,125.563,195.224,125.521,195.752,125.521 M195.753,127.521C195.753,127.521,195.753,127.521,195.753,127.521
			c-0.428,0-0.86,0.035-1.286,0.104c-4.354,0.702-7.326,4.816-6.625,9.171c0.628,3.899,3.945,6.729,7.887,6.729
			c0.427,0,0.859-0.034,1.284-0.103c4.354-0.703,7.327-4.817,6.625-9.171C203.01,130.351,199.694,127.521,195.753,127.521
			L195.753,127.521z"/>
	</g>
	
		<line display="inline" fill="none" stroke="#C86400" stroke-width="2" stroke-miterlimit="10" x1="204.626" y1="134.09" x2="186.855" y2="136.955"/>
	<g display="inline">
		
			<line fill="none" stroke="#C86400" stroke-width="2" stroke-miterlimit="10" x1="194.309" y1="126.637" x2="197.172" y2="144.409"/>
		<path fill="none" stroke="#C86400" stroke-width="2" stroke-miterlimit="10" d="M189.886,129.376c0,0,0.84-0.161,1.976,6.883
			c1.135,7.043,0.252,6.938,0.252,6.938"/>
		<path fill="none" stroke="#C86400" stroke-width="2" stroke-miterlimit="10" d="M201.587,141.618c0,0-0.84,0.161-1.976-6.883
			s-0.252-6.938-0.252-6.938"/>
	</g>
</g>
</svg>
